<svg xmlns="http://www.w3.org/2000/svg" xmlns:xlink="http://www.w3.org/1999/xlink" width="512" height="210" viewBox="0 0 512 210">
  <defs>
    <polygon id="hudsonnews-a" points="0 0 511.75 0 511.75 59.899 0 59.899"/>
  </defs>
  <g fill="none" fill-rule="evenodd" transform="translate(0 75)">
    <mask id="hudsonnews-b" fill="#fff">
      <use xlink:href="#hudsonnews-a"/>
    </mask>
    <path fill="#002A48" d="M146.203418,35.1585957 C145.769682,39.7872978 140.416404,50.6392742 134.33956,50.6392742 C131.590716,50.6392742 130.939355,48.0348402 131.30139,45.5041262 C131.663426,43.0435976 135.786692,30.6732939 142.803718,30.6732939 C145.553067,30.6732939 146.348838,33.2772229 146.203418,35.1585957 Z M183.821785,44.63514 C183.821785,47.3117791 182.230242,50.6392742 179.119867,50.6392742 C176.515434,50.6392742 173.911505,48.3973807 173.911505,46.7326233 C175.429832,45.0693807 179.915639,39.4984773 181.434471,37.1838738 C182.664483,38.5593057 183.821785,42.2473215 183.821785,44.63514 Z M221.511852,35.5918264 C221.295236,41.4515503 215.941958,50.6392742 210.805295,50.6392742 C208.491197,50.6392742 207.695426,48.6139961 207.767126,45.8651519 C207.983741,40.0059329 213.337524,30.6732939 218.546392,30.6732939 C220.933201,30.6732939 221.584057,32.8429822 221.511852,35.5918264 Z M368.583599,32.1921262 C368.583599,35.9543669 363.447946,37.328284 360.626897,37.4737041 C360.120956,37.4737041 357.876538,37.4004892 357.876538,37.4004892 C358.383489,34.6521499 363.302526,30.6732939 366.486621,30.6732939 C367.499007,30.6732939 368.583599,30.9621144 368.583599,32.1921262 Z M465.37937,44.63514 C465.37937,47.3117791 463.786818,50.6392742 460.675434,50.6392742 C458.072514,50.6392742 455.540286,48.4695858 455.540286,46.8048284 C457.059118,45.1415858 461.544925,39.5716923 462.846637,37.2565838 C464.076144,38.630501 465.37937,42.2473215 465.37937,44.63514 Z M194.311221,45.1415858 C194.311221,35.375211 189.681508,33.4221381 189.681508,27.9961499 C189.681508,26.115787 190.405075,22.4257515 192.720183,20.5453886 L181.362266,20.5453886 C180.928025,21.3411598 175.429832,29.8770178 168.990952,37.8342249 C163.710384,44.4180197 157.92337,50.494359 155.897587,50.494359 C155.101311,50.494359 154.740286,49.916213 154.740286,48.6139961 C154.740286,40.4391637 175.937288,3.61707298 176.659339,2.82079684 L163.99971,2.82079684 C160.88883,8.46390533 155.318432,18.8094359 152.063647,25.2473057 C150.037864,23.1493176 146.709864,21.7754004 143.093043,21.7754004 C138.174006,21.7754004 133.182258,23.0049073 128.696956,27.6346193 C124.64539,31.7588955 120.739244,40.8728994 117.84599,44.4180197 C115.892412,46.8780434 113.143568,50.6392742 109.960483,50.6392742 C108.948096,50.6392742 108.22453,49.7718028 108.22453,47.96314 C108.22453,44.2736095 117.122424,26.2601972 119.581942,22.4984615 L106.198242,22.4984615 C106.198242,22.4984615 101.640735,33.7836686 97.4452639,40.7284892 C93.7552284,46.8048284 89.7768773,50.6392742 86.5215874,50.6392742 C85.0017452,50.6392742 84.8573349,49.8440079 84.8573349,48.3973807 C84.8573349,43.3329231 97.2281436,22.4984615 97.2281436,22.4984615 L85.2920805,22.4984615 C84.6402146,23.4391479 83.1213822,25.3200158 82.2523961,26.115787 C77.9125144,30.0219329 74.6577294,30.8899093 70.0275124,31.0348245 L85.4359858,-0.000252465483 L71.69126,-0.000252465483 L57.3668734,30.5273688 L42.3926406,30.5273688 L57.0058477,0.144662722 L43.7665578,0.144662722 L29.2260607,30.5273688 L5.78716529,30.5273688 L0.00015147929,39.7872978 L24.8129641,39.7872978 L14.9748892,59.754288 L28.2853744,59.754288 L37.9800489,39.9327179 L52.8093665,39.9327179 L43.4772323,59.8997081 L56.9331377,59.8997081 L66.0481515,40.0059329 C71.2570193,39.9327179 73.7165381,40.2942485 77.4060686,37.328284 C75.8145262,40.1493333 73.5721278,46.2266824 73.5721278,49.4819724 C73.5721278,56.7161183 78.4184552,59.5371677 84.1342738,59.5371677 C90.4282383,59.5371677 94.84083,57.0059487 98.095615,54.2565996 C100.265808,57.8734201 103.015662,59.5371677 106.922313,59.5371677 C112.709327,59.5371677 117.91769,56.7888284 121.897051,52.1586114 C123.126558,56.8610335 127.322029,59.5371677 131.807836,59.5371677 C137.450439,59.5371677 142.875923,57.1508639 145.480357,54.2565996 C146.855284,58.1632505 150.833635,59.5371677 154.59537,59.5371677 C159.586613,59.5371677 162.408672,57.7290099 166.531938,53.822359 C169.932144,57.6573097 174.635071,59.5371677 179.408688,59.5371677 C187.077579,59.5371677 194.311221,54.619645 194.311221,45.1415858 Z M286.620175,44.5629349 C282.423694,47.3117791 275.480388,50.6392742 272.151378,50.6392742 C270.198305,50.6392742 268.968798,49.5541775 268.968798,46.7326233 C268.968798,41.6696805 278.373643,27.3457988 282.351489,22.7155819 L269.982195,22.4984615 C269.041508,22.9321972 266.509785,24.8852702 265.351473,25.9703669 C262.168893,28.9363314 253.84965,36.0982722 253.84965,36.0982722 C253.84965,36.0982722 258.550558,26.5495227 261.156507,22.4984615 L249.074518,22.4984615 C244.951252,27.7795345 238.729998,31.4685602 232.652649,31.1797396 C231.278731,25.1745957 226.358684,21.7754004 220.49997,21.7754004 C206.681524,21.7754004 197.132775,34.7960552 196.770739,45.4304063 C196.481919,52.9543826 200.677895,59.5371677 209.575789,59.5371677 C221.223031,59.5371677 230.12143,50.9301144 232.435528,39.7155976 C236.414889,40.1493333 239.597469,38.9198264 242.781059,37.1121736 C239.815599,43.5510533 234.967757,53.244213 231.712467,58.7424063 L243.35971,58.7424063 C243.35971,58.7424063 248.134337,51.5072505 251.245721,48.1797554 C253.994566,45.2142959 258.696988,40.8728994 260.576846,39.5716923 L260.721761,39.6433925 C259.202929,42.1751164 257.972412,46.2266824 257.972412,49.265357 C257.972412,54.4005049 260.070905,59.5371677 268.896088,59.5371677 C272.947654,59.5371677 279.169919,57.7290099 281.629437,55.2694911 L286.620175,44.5629349 Z M360.192151,0.939928994 L346.954376,0.939928994 L331.182858,33.7114635 L328.289603,2.02553057 L316.641856,2.02553057 L287.633572,59.8997081 L300.944057,59.8997081 L319.319505,21.6299803 L322.502084,58.7424063 L331.762518,58.7424063 L360.192151,0.939928994 Z M511.749706,37.7625247 L485.127725,37.7625247 C481.077169,37.7625247 477.96629,39.0652465 475.505761,40.8006943 C474.493374,35.2308008 470.877059,32.3370414 470.877059,27.9961499 C470.877059,26.115787 471.52741,22.2091361 473.915228,20.5453886 L462.485106,20.5453886 C462.050361,21.3411598 457.059118,29.9497278 450.548538,37.8342249 C445.26797,44.2008994 439.335031,50.494359 437.526873,50.494359 C436.803812,50.494359 436.224656,49.9884181 436.224656,48.7589112 C436.224656,48.2514556 436.659402,47.0229586 436.948727,46.5877081 C441.215899,40.2220434 444.255079,31.9028008 444.255079,22.4984615 L433.403102,22.4984615 C433.403102,22.4984615 433.114282,25.3200158 432.969366,26.4051124 C432.100885,32.9878974 429.280341,41.6696805 424.288088,46.8780434 C422.33451,48.9760316 420.308727,50.6392742 418.355654,50.6392742 C417.270558,50.6392742 416.692412,50.1328284 416.692412,48.1065404 C416.692412,44.4180197 425.590305,26.2601972 428.049319,22.4984615 L415.680025,22.4984615 C415.680025,22.4984615 410.325737,33.7836686 406.129761,40.7284892 C402.439725,46.8048284 399.257146,50.6392742 396.002865,50.6392742 C394.772854,50.6392742 394.482518,49.8440079 394.482518,48.3973807 C394.482518,43.3329231 406.275181,22.4984615 406.275181,22.4984615 L394.410313,22.4984615 C391.661469,27.8517396 387.465493,37.6908245 380.303552,43.5510533 C376.541311,46.5877081 369.452585,50.6392742 362.290645,50.6392742 C358.383489,50.6392742 356.358211,48.1065404 356.503126,45.7202367 C356.936862,45.7924418 359.32468,45.7924418 360.192151,45.7202367 C368.222574,45.2859961 379.43608,40.5118738 379.43608,30.9621144 C379.43608,23.8728836 373.504151,21.7754004 367.789343,21.7754004 C356.06939,21.7754004 346.737256,32.1921262 345.579954,43.0435976 C344.566558,52.593357 349.703221,59.5371677 361.206053,59.5371677 C370.321067,59.5371677 377.483007,56.8610335 384.355118,51.7975858 C385.295804,57.2952742 388.696009,59.5371677 393.687252,59.5371677 C399.980712,59.5371677 403.526337,57.0059487 406.782132,54.2565996 C408.95081,57.8734201 412.714061,59.5371677 416.619702,59.5371677 C421.178219,59.5371677 424.504704,58.0915503 428.339654,55.5588166 C429.858992,57.9461302 432.896656,59.5371677 436.659402,59.5371677 C440.854873,59.5371677 443.675418,57.8734201 447.943094,53.822359 C451.344814,57.6573097 456.191142,59.5371677 460.965264,59.5371677 C473.842518,59.5371677 475.144735,47.0229586 485.127725,47.0229586 L505.962187,47.0229586 L511.749706,37.7625247 Z" mask="url(#hudsonnews-b)"/>
  </g>
</svg>
